<?xml version="1.0" standalone="no"?>
<!DOCTYPE svg PUBLIC "-//W3C//DTD SVG 20010904//EN"
 "http://www.w3.org/TR/2001/REC-SVG-20010904/DTD/svg10.dtd">
<svg version="1.0" xmlns="http://www.w3.org/2000/svg"
 width="1470.000000pt" height="1470.000000pt" viewBox="0 0 1470.000000 1470.000000"
 preserveAspectRatio="xMidYMid meet">
<metadata>
Created by potrace 1.11, written by Peter Selinger 2001-2013
</metadata>
<g transform="translate(0.000000,1470.000000) scale(0.100000,-0.100000)"
fill="#000000" stroke="none">
<path d="M0 7350 l0 -3340 442 2 443 3 0 1570 0 1570 1736 2 1736 2 1 -1557
c0 -856 1 -1565 1 -1575 1 -16 27 -17 442 -15 l441 3 0 3335 0 3335 -441 3
-441 2 -1 -32 c0 -18 -1 -635 -1 -1370 l-1 -1338 -41 -1 c-52 -1 -3408 -1
-3421 0 -7 1 -10 460 -10 1369 l0 1367 -443 3 -442 2 0 -3340z"/>
<path d="M6114 10668 c24 -91 103 -389 136 -513 21 -82 70 -267 108 -410 81
-305 84 -317 88 -330 1 -5 11 -44 22 -85 11 -41 64 -239 117 -440 53 -201 108
-405 122 -455 14 -49 26 -98 28 -107 2 -10 16 -62 30 -115 15 -54 29 -105 31
-113 13 -52 80 -306 90 -340 2 -8 10 -40 18 -70 8 -30 28 -104 44 -165 16 -60
52 -198 81 -305 28 -107 62 -235 75 -285 13 -49 38 -142 55 -205 17 -63 42
-158 56 -210 13 -52 43 -162 65 -245 61 -232 128 -482 150 -565 37 -136 161
-605 165 -623 2 -10 14 -52 25 -95 12 -42 23 -84 25 -92 2 -8 19 -76 39 -150
21 -74 39 -142 41 -150 3 -16 32 -124 95 -360 21 -80 44 -164 50 -188 l11 -42
452 2 452 3 53 190 c29 105 109 390 177 635 68 245 158 569 200 720 42 151 99
354 125 450 85 307 271 973 335 1200 32 111 220 790 250 900 13 47 45 159 70
250 26 91 64 228 85 305 21 77 55 199 75 270 20 72 39 137 40 145 2 8 28 107
58 220 30 113 74 287 98 387 23 100 46 180 50 178 3 -3 9 -22 12 -42 6 -32 73
-284 193 -718 14 -49 26 -97 28 -105 3 -8 23 -82 46 -165 23 -82 43 -159 46
-169 2 -10 8 -33 14 -50 5 -17 18 -62 29 -101 36 -134 212 -770 226 -820 21
-72 76 -267 80 -286 2 -8 33 -123 70 -254 36 -131 72 -262 80 -289 7 -28 23
-85 35 -126 11 -41 22 -82 25 -90 15 -60 160 -582 195 -705 17 -60 33 -117 35
-125 3 -14 43 -161 95 -345 70 -251 97 -352 170 -615 45 -162 91 -326 101
-365 10 -38 28 -101 38 -140 11 -38 37 -132 57 -207 l38 -138 427 0 426 0 17
63 c10 34 26 91 36 127 10 36 49 175 85 310 77 283 166 608 365 1330 158 577
334 1219 355 1295 7 28 52 192 100 365 48 173 91 329 95 345 4 17 49 181 100
365 51 184 96 349 100 365 13 52 140 518 155 565 7 25 48 173 90 330 42 157
80 296 85 310 5 14 23 79 40 145 18 66 42 156 55 200 13 44 35 123 49 175 29
111 94 347 102 373 5 16 -20 17 -440 17 l-445 0 -10 -37 c-9 -33 -46 -189 -56
-233 -2 -8 -15 -60 -29 -115 -13 -55 -27 -111 -30 -125 -2 -14 -36 -154 -75
-312 -168 -681 -271 -1105 -276 -1128 -2 -8 -33 -136 -70 -285 -36 -148 -68
-277 -70 -285 -2 -8 -17 -73 -35 -145 -17 -71 -33 -138 -35 -148 -2 -10 -7
-27 -10 -37 -3 -10 -7 -27 -9 -37 -2 -10 -11 -45 -19 -78 -9 -33 -18 -71 -21
-85 -3 -14 -23 -97 -45 -185 -22 -88 -55 -225 -75 -305 -19 -80 -55 -228 -80
-330 -25 -102 -69 -286 -100 -410 -86 -352 -198 -821 -203 -849 -2 -14 -10
-54 -18 -87 -8 -34 -16 -73 -19 -85 -2 -13 -14 -69 -26 -124 -12 -55 -33 -147
-45 -205 -13 -58 -24 -102 -25 -97 -5 15 -8 34 -27 156 -2 18 -6 43 -9 54 -2
12 -6 39 -9 62 -3 22 -8 47 -10 55 -2 8 -7 35 -10 60 -4 25 -22 126 -41 225
-19 99 -37 194 -40 210 -3 17 -9 49 -15 73 -5 23 -12 59 -15 80 -3 20 -8 40
-10 43 -2 3 -6 21 -9 40 -3 19 -10 50 -15 69 -5 19 -11 46 -13 60 -3 14 -10
43 -15 65 -6 22 -14 56 -17 75 -3 19 -10 49 -15 65 -5 17 -11 41 -14 55 -20
103 -205 799 -315 1180 -36 124 -51 176 -126 445 -42 149 -108 380 -146 515
-38 135 -76 270 -84 300 -9 30 -22 78 -30 105 -17 56 -70 243 -144 510 -28 99
-55 194 -60 210 -5 17 -37 129 -72 250 -34 121 -96 342 -138 490 l-77 270
-534 3 -535 2 -29 -107 c-16 -60 -34 -126 -41 -148 -7 -22 -48 -164 -90 -315
-42 -151 -115 -410 -161 -575 -47 -165 -117 -412 -155 -550 -71 -250 -182
-646 -233 -825 -15 -52 -54 -192 -87 -310 -33 -118 -66 -235 -73 -260 -8 -25
-21 -70 -29 -100 -86 -304 -149 -528 -152 -540 -2 -8 -27 -96 -55 -195 -28
-99 -57 -202 -65 -230 -7 -27 -30 -106 -49 -175 -39 -137 -131 -496 -177 -687
-15 -67 -51 -214 -78 -327 -28 -112 -53 -217 -56 -233 -3 -15 -13 -59 -23 -97
l-18 -68 -22 118 c-12 66 -24 133 -27 149 -2 17 -16 86 -30 155 -14 69 -28
136 -30 150 -4 22 -40 198 -50 240 -2 8 -10 49 -19 90 -8 41 -34 154 -56 250
-22 96 -42 184 -44 195 -3 11 -16 70 -31 130 -15 61 -28 120 -31 132 -2 12
-25 109 -49 215 -120 512 -155 666 -180 778 -2 8 -15 65 -30 125 -14 61 -35
148 -45 195 -11 47 -38 164 -60 260 -23 96 -47 202 -55 235 -8 33 -23 98 -34
145 -19 82 -144 618 -183 790 -11 47 -22 96 -24 109 -3 14 -7 28 -9 31 -2 4
-7 21 -10 38 -3 17 -14 70 -26 119 -12 48 -22 95 -24 103 -2 8 -13 56 -25 105
-12 50 -24 101 -26 115 -6 28 -59 255 -73 310 -5 19 -30 131 -57 248 l-49 212
-454 0 -453 0 6 -22z"/>
</g>
</svg>
